#!OML:ASF C:\ViconDB\ViconDB\414\Spring2016\042216\male.ASF
:FULLY-SPECIFIED
:DEGREES
930
root 45.0148 17.8372 11.3746 898.998 63.0795 1258.71
lowerback -3.19059 -1.14016 5.19693
upperback -0.819267 -1.66814 -0.709715
thorax 0.775158 -0.825288 -3.70786
lowerneck 1.47573 15.8136 1.54929
upperneck 1.28043 21.4162 -7.21659
head 1.18108 10.7428 -2.21152
rclavicle -4.10615e-014 7.35503e-015
rhumerus -30.3672 -3.69209 -93.1369
rradius 25.088
rwrist 35.5874
rhand 13.9382 -19.1117
rfingers 7.12502
rthumb 38.8513 -44.6742
lclavicle -4.10615e-014 7.35503e-015
lhumerus -36.0284 16.3961 86.0848
lradius 31.5206
lwrist -20.3374
lhand -7.2309 13.4916
lfingers 7.12502
lthumb 18.6487 42.6177
rfemur -2.30355 18.7594 21.0324
rtibia 22.3294
rfoot -22.2122 -15.3445
rtoes -13.5308
lfemur -7.55242 -4.84114 -17.7551
ltibia 23.772
lfoot -28.4803 -16.4343
ltoes -18.2707
931
root 45.0158 17.8369 11.3769 898.992 63.0967 1258.72
lowerback -3.18443 -1.11777 5.20295
upperback -0.814996 -1.63827 -0.719661
thorax 0.7787 -0.810221 -3.7205
lowerneck 1.47454 15.8047 1.55734
upperneck 1.28157 21.4082 -7.26931
head 1.18876 10.7391 -2.22792
rclavicle 5.24419e-014 -1.23246e-014
rhumerus -30.3529 -3.73742 -93.0882
rradius 25.1176
rwrist 35.4061
rhand 14.0315 -19.2518
rfingers 7.12502
rthumb 38.9392 -44.7892
lclavicle 5.24419e-014 -1.23246e-014
lhumerus -35.9993 16.4026 86.0677
lradius 31.4979
lwrist -20.4594
lhand -7.16911 13.5162
lfingers 7.12502
lthumb 18.7082 42.6366
rfemur -2.28919 18.7288 21.0448
rtibia 22.3169
rfoot -22.1719 -15.3604
rtoes -13.4933
lfemur -7.55432 -4.82248 -17.7433
ltibia 23.7902
lfoot -28.4883 -16.4556
ltoes -18.1465
932
root 45.0162 17.8367 11.38 899.026 63.1004 1258.75
lowerback -3.19181 -1.10652 5.211
upperback -0.80708 -1.62426 -0.712586
thorax 0.79241 -0.802675 -3.71758
lowerneck 1.48842 15.8073 1.56016
upperneck 1.26443 21.4151 -7.33434
head 1.18973 10.7436 -2.24905
rclavicle -3.35822e-014 7.15625e-015
rhumerus -30.3483 -3.76273 -93.0046
rradius 25.024
rwrist 36.0853
rhand 13.8998 -18.9543
rfingers 7.12502
rthumb 38.815 -44.5271
lclavicle -3.35822e-014 7.15625e-015
lhumerus -35.97 16.4322 86.0617
lradius 31.4767
lwrist -20.4733
lhand -7.16977 13.5202
lfingers 7.12502
lthumb 18.7075 42.6406
rfemur -2.29519 18.7523 21.0779
rtibia 22.3182
rfoot -22.165 -15.4093
rtoes -13.6371
lfemur -7.55497 -4.83896 -17.7119
ltibia 23.7941
lfoot -28.4284 -16.4904
ltoes -17.9855
933
root 45.0158 17.8375 11.3827 899.142 63.1063 1258.85
lowerback -3.20639 -1.09742 5.24056
upperback -0.814966 -1.61365 -0.693483
thorax 0.793243 -0.797348 -3.71435
lowerneck 1.46423 15.8247 1.55589
upperneck 1.31781 21.4447 -7.35081
head 1.21401 10.7571 -2.24729
rclavicle -5.86539e-014 -1.31198e-014
rhumerus -30.3409 -3.78386 -92.9378
rradius 24.9931
rwrist 36.2136
rhand 14.0139 -18.8513
rfingers 7.12502
rthumb 38.9226 -44.3935
lclavicle -5.86539e-014 -1.31198e-014
lhumerus -35.959 16.4162 86.0461
lradius 31.4463
lwrist -20.4943
lhand -7.07717 13.4936
lfingers 7.12502
lthumb 18.7966 42.6054
rfemur -2.33374 18.7239 21.1203
rtibia 22.3095
rfoot -22.1227 -15.3938
rtoes -13.7114
lfemur -7.59794 -4.80939 -17.6442
ltibia 23.8073
lfoot -28.5262 -16.4523
ltoes -18.297
934
root 45.015 17.8374 11.3848 899.103 63.113 1258.79
lowerback -3.20952 -1.09522 5.20253
upperback -0.823128 -1.60936 -0.696434
thorax 0.788024 -0.795522 -3.69582
lowerneck 1.47487 15.8249 1.54746
upperneck 1.33132 21.4484 -7.37868
head 1.21939 10.7593 -2.25445
rclavicle -3.35325e-014 6.95746e-015
rhumerus -30.3325 -3.77158 -92.8904
rradius 24.9545
rwrist 36.3763
rhand 13.9349 -18.8354
rfingers 7.12502
rthumb 38.8481 -44.3987
lclavicle -3.35325e-014 6.95746e-015
lhumerus -35.9375 16.2905 86.0931
lradius 31.4274
lwrist -20.1867
lhand -7.16639 13.551
lfingers 7.12502
lthumb 18.7108 42.6711
rfemur -2.36298 18.7122 21.0844
rtibia 22.3151
rfoot -22.1938 -15.2898
rtoes -13.6857
lfemur -7.61948 -4.7677 -17.6642
ltibia 23.807
lfoot -28.6865 -16.3441
ltoes -18.7912
935
root 45.0147 17.8373 11.3868 899.182 63.1055 1258.87
lowerback -3.22692 -1.08522 5.23712
upperback -0.818945 -1.59821 -0.695889
thorax 0.802255 -0.789418 -3.71486
lowerneck 1.46423 15.8222 1.54289
upperneck 1.34673 21.4466 -7.38494
head 1.22631 10.7579 -2.25398
rclavicle 3.73964e-015 1.19271e-014
rhumerus -30.2935 -3.75529 -92.8647
rradius 24.9348
rwrist 36.2378
rhand 13.7774 -18.9671
rfingers 7.12502
rthumb 38.6996 -44.5725
lclavicle 3.73964e-015 1.19271e-014
lhumerus -35.9249 16.2105 86.0856
lradius 31.4031
lwrist -20.0515
lhand -7.17233 13.5158
lfingers 7.12502
lthumb 18.7051 42.6364
rfemur -2.3824 18.7301 21.1223
rtibia 22.3154
rfoot -22.1558 -15.3038
rtoes -13.8271
lfemur -7.63917 -4.80489 -17.6202
ltibia 23.811
lfoot -28.3281 -16.6285
ltoes -17.6324
936
root 45.0152 17.8371 11.3899 899.13 63.1023 1258.83
lowerback -3.21473 -1.08293 5.18894
upperback -0.805936 -1.59352 -0.689885
thorax 0.810869 -0.786705 -3.68128
lowerneck 1.45792 15.8236 1.52697
upperneck 1.3499 21.4502 -7.40341
head 1.2291 10.7597 -2.25642
rclavicle 1.01753e-014 -1.15295e-014
rhumerus -30.2625 -3.83991 -92.7765
rradius 24.9281
rwrist 36.2704
rhand 13.8403 -18.9977
rfingers 7.12502
rthumb 38.759 -44.5864
lclavicle 1.01753e-014 -1.15295e-014
lhumerus -35.9093 16.3129 86.0121
lradius 31.3516
lwrist -20.0831
lhand -7.15022 13.4805
lfingers 7.12502
lthumb 18.7263 42.5991
rfemur -2.36587 18.8033 21.1328
rtibia 22.3338
rfoot -22.2183 -15.3902
rtoes -13.5494
lfemur -7.6171 -4.81325 -17.6306
ltibia 23.7989
lfoot -27.8883 -17.0151
ltoes -16.0291
937
root 45.0149 17.8377 11.3927 899.186 63.0866 1258.89
lowerback -3.21624 -1.07183 5.2223
upperback -0.795968 -1.58023 -0.694516
thorax 0.822283 -0.779551 -3.7046
lowerneck 1.46098 15.8213 1.52797
upperneck 1.34222 21.4468 -7.40943
head 1.22681 10.7582 -2.25909
rclavicle 3.6154e-015 -3.37934e-015
rhumerus -30.2185 -3.95738 -92.7151
rradius 24.9196
rwrist 36.204
rhand 13.8955 -18.9835
rfingers 7.12502
rthumb 38.811 -44.5574
lclavicle 3.6154e-015 -3.37934e-015
lhumerus -35.9089 16.4315 85.9001
lradius 31.3122
lwrist -20.0919
lhand -7.28075 13.2593
lfingers 7.12502
lthumb 18.6008 42.39
rfemur -2.3729 18.7743 21.1749
rtibia 22.342
rfoot -22.2175 -15.4092
rtoes -13.7113
lfemur -7.62734 -4.79126 -17.5892
ltibia 23.7958
lfoot -27.9409 -17.0175
ltoes -16.1733
938
root 45.0149 17.8377 11.3945 899.115 63.0827 1258.84
lowerback -3.20133 -1.06603 5.18714
upperback -0.784218 -1.57097 -0.705313
thorax 0.827675 -0.774699 -3.6955
lowerneck 1.45051 15.8134 1.51745
upperneck 1.34828 21.4365 -7.40719
head 1.22853 10.7527 -2.25617
rclavicle 3.34579e-014 -4.96962e-015
rhumerus -30.1834 -4.04818 -92.6493
rradius 24.8868
rwrist 36.3334
rhand 13.9585 -18.9046
rfingers 7.12502
rthumb 38.8704 -44.4616
lclavicle 3.34579e-014 -4.96962e-015
lhumerus -35.9138 16.4759 85.8273
lradius 31.2766
lwrist -20.1203
lhand -7.34774 13.3949
lfingers 7.12502
lthumb 18.5364 42.5317
rfemur -2.35585 18.7652 21.1579
rtibia 22.3518
rfoot -22.1571 -15.4725
rtoes -13.6586
lfemur -7.60609 -4.76377 -17.6131
ltibia 23.7906
lfoot -27.9656 -17.0303
ltoes -16.3117
